<svg xmlns="http://www.w3.org/2000/svg" width="188.392" height="188.417" viewBox="0 0 188.392 188.417"><g transform="translate(-23.993 -23.972)"><path d="M395.837,221.738a80.865,80.865,0,0,0-3.613-23.881l-35.8,92.909a80.114,80.114,0,0,0,39.414-69.028Z" transform="translate(-197.459 -103.285)" fill="#fff"/><path d="M193.628,350.585a80.406,80.406,0,0,0,51.854-.362l-24.459-63.411-27.394,63.773Z" transform="translate(-100.761 -156.123)" fill="#fff"/><path d="M62.05,200.888a80.1,80.1,0,0,0,37.692,92.548L62.3,201.391l-.245-.5Z" transform="translate(-20.662 -105.086)" fill="#fff"/><path d="M112.325,111.619l-3.442-.154c-7.509-.125-6.677,7.671-6.677,7.671l26.642,66.821,17.911-42.782-10-25.457c-4-6.731-13.774-6.66-13.774-6.66v-3.546H179l-.083,3.933-5.829.362c-7.259,0-5.791,6.905-5.791,6.905L191.61,183.65l6.968-17.982c12.36-28.022,4.735-48.76,4.735-48.76-12.377-25.465,3.264-29.12,3.264-29.12.989-.141,1.917-.22,2.827-.262A80.13,80.13,0,0,0,74.69,107.9l37.5-.387.133,4.1Z" transform="translate(-30.113 -20.985)" fill="#fff"/><path d="M208.261,118.187a90.066,90.066,0,1,1-90.053-90.066A90.174,90.174,0,0,1,208.261,118.187ZM118.208,23.972a94.209,94.209,0,1,0,94.178,94.219A94.329,94.329,0,0,0,118.208,23.972Z" transform="translate(0 0)" fill="#fff"/></g></svg>